<mxfile host="app.diagrams.net" modified="2024-06-20T06:49:09.975Z" agent="Mozilla/5.0 (Windows NT 10.0; Win64; x64) AppleWebKit/537.36 (KHTML, like Gecko) Chrome/126.0.0.0 Safari/537.36" etag="5FsM3BK8MkhVkU1gPuPj" version="24.5.5" type="device">
  <diagram id="C5RBs43oDa-KdzZeNtuy" name="Page-1">
    <mxGraphModel dx="1323" dy="687" grid="1" gridSize="10" guides="1" tooltips="1" connect="1" arrows="1" fold="1" page="1" pageScale="1" pageWidth="827" pageHeight="1169" math="0" shadow="0">
      <root>
        <mxCell id="WIyWlLk6GJQsqaUBKTNV-0" />
        <mxCell id="WIyWlLk6GJQsqaUBKTNV-1" parent="WIyWlLk6GJQsqaUBKTNV-0" />
        <mxCell id="WIyWlLk6GJQsqaUBKTNV-2" value="" style="rounded=0;html=1;jettySize=auto;orthogonalLoop=1;fontSize=11;endArrow=block;endFill=0;endSize=8;strokeWidth=1;shadow=0;labelBackgroundColor=none;edgeStyle=orthogonalEdgeStyle;entryX=0;entryY=0.5;entryDx=0;entryDy=0;" parent="WIyWlLk6GJQsqaUBKTNV-1" source="WIyWlLk6GJQsqaUBKTNV-3" target="4xFAI8DQ6K7P5_XGN9i8-5" edge="1">
          <mxGeometry relative="1" as="geometry">
            <mxPoint x="297" y="100" as="targetPoint" />
          </mxGeometry>
        </mxCell>
        <mxCell id="WIyWlLk6GJQsqaUBKTNV-3" value="File Upload Button" style="rounded=1;whiteSpace=wrap;html=1;fontSize=14;glass=0;strokeWidth=1;shadow=0;fontFamily=Times New Roman;" parent="WIyWlLk6GJQsqaUBKTNV-1" vertex="1">
          <mxGeometry x="87" y="80" width="120" height="40" as="geometry" />
        </mxCell>
        <mxCell id="WIyWlLk6GJQsqaUBKTNV-6" value="File Selected?" style="rhombus;whiteSpace=wrap;html=1;shadow=0;fontFamily=Times New Roman;fontSize=14;align=center;strokeWidth=1;spacing=6;spacingTop=-4;" parent="WIyWlLk6GJQsqaUBKTNV-1" vertex="1">
          <mxGeometry x="545" y="60" width="100" height="80" as="geometry" />
        </mxCell>
        <mxCell id="4xFAI8DQ6K7P5_XGN9i8-3" value="" style="edgeStyle=none;orthogonalLoop=1;jettySize=auto;html=1;rounded=0;exitX=1;exitY=0.5;exitDx=0;exitDy=0;" edge="1" parent="WIyWlLk6GJQsqaUBKTNV-1" source="4xFAI8DQ6K7P5_XGN9i8-5">
          <mxGeometry width="80" relative="1" as="geometry">
            <mxPoint x="437" y="100" as="sourcePoint" />
            <mxPoint x="547" y="100" as="targetPoint" />
            <Array as="points" />
          </mxGeometry>
        </mxCell>
        <mxCell id="4xFAI8DQ6K7P5_XGN9i8-5" value="File Input Dialogue" style="shape=parallelogram;perimeter=parallelogramPerimeter;whiteSpace=wrap;html=1;fixedSize=1;fontFamily=Times New Roman;fontSize=14;" vertex="1" parent="WIyWlLk6GJQsqaUBKTNV-1">
          <mxGeometry x="302" y="80" width="135" height="40" as="geometry" />
        </mxCell>
        <mxCell id="4xFAI8DQ6K7P5_XGN9i8-6" value="Set status label to transcription&lt;div style=&quot;font-size: 14px;&quot;&gt;Start transcription in another thread&lt;/div&gt;&lt;div style=&quot;font-size: 14px;&quot;&gt;Use initiate_transcription function&lt;/div&gt;&lt;div style=&quot;font-size: 14px;&quot;&gt;Save file local address in a global variable&lt;/div&gt;" style="rounded=0;whiteSpace=wrap;html=1;align=left;spacingBottom=0;fontFamily=Times New Roman;fontSize=14;" vertex="1" parent="WIyWlLk6GJQsqaUBKTNV-1">
          <mxGeometry x="367" y="160" width="260" height="70" as="geometry" />
        </mxCell>
        <mxCell id="4xFAI8DQ6K7P5_XGN9i8-11" value="Send the audio file to AssemblyAI API&lt;div style=&quot;font-size: 14px;&quot;&gt;Save the returned URL in audio_url&amp;nbsp;variable&lt;/div&gt;" style="rounded=0;whiteSpace=wrap;html=1;align=left;fontFamily=Times New Roman;fontSize=14;" vertex="1" parent="WIyWlLk6GJQsqaUBKTNV-1">
          <mxGeometry x="87" y="160" width="260" height="50" as="geometry" />
        </mxCell>
        <mxCell id="4xFAI8DQ6K7P5_XGN9i8-13" value="&lt;font style=&quot;font-size: 14px;&quot;&gt;Subtitle format is not non and is_summarization is false&lt;/font&gt;" style="rhombus;whiteSpace=wrap;html=1;fontFamily=Times New Roman;fontSize=14;" vertex="1" parent="WIyWlLk6GJQsqaUBKTNV-1">
          <mxGeometry x="87" y="240" width="199" height="130" as="geometry" />
        </mxCell>
        <mxCell id="4xFAI8DQ6K7P5_XGN9i8-15" value="Set the status label&lt;div style=&quot;font-size: 14px;&quot;&gt;Send audio_url and subtitle_format to get_subtitle_file function&lt;/div&gt;&lt;div style=&quot;font-size: 14px;&quot;&gt;Returns subtitle and error&lt;/div&gt;" style="rounded=0;whiteSpace=wrap;html=1;align=left;fontFamily=Times New Roman;fontSize=14;" vertex="1" parent="WIyWlLk6GJQsqaUBKTNV-1">
          <mxGeometry x="417.5" y="260" width="359.5" height="60" as="geometry" />
        </mxCell>
        <mxCell id="4xFAI8DQ6K7P5_XGN9i8-17" value="" style="edgeStyle=none;orthogonalLoop=1;jettySize=auto;html=1;rounded=0;exitX=1;exitY=0.5;exitDx=0;exitDy=0;" edge="1" parent="WIyWlLk6GJQsqaUBKTNV-1" source="4xFAI8DQ6K7P5_XGN9i8-13">
          <mxGeometry width="80" relative="1" as="geometry">
            <mxPoint x="337" y="289.5" as="sourcePoint" />
            <mxPoint x="417" y="289.5" as="targetPoint" />
            <Array as="points">
              <mxPoint x="307" y="290" />
            </Array>
          </mxGeometry>
        </mxCell>
        <mxCell id="4xFAI8DQ6K7P5_XGN9i8-63" value="Yes" style="edgeLabel;html=1;align=center;verticalAlign=middle;resizable=0;points=[];fontFamily=Times New Roman;fontSize=15;" vertex="1" connectable="0" parent="4xFAI8DQ6K7P5_XGN9i8-17">
          <mxGeometry x="-0.1448" y="-2" relative="1" as="geometry">
            <mxPoint y="-13" as="offset" />
          </mxGeometry>
        </mxCell>
        <mxCell id="4xFAI8DQ6K7P5_XGN9i8-20" value="Subtitle Available?" style="rhombus;whiteSpace=wrap;html=1;fontFamily=Times New Roman;fontSize=14;" vertex="1" parent="WIyWlLk6GJQsqaUBKTNV-1">
          <mxGeometry x="447" y="365" width="90.5" height="80" as="geometry" />
        </mxCell>
        <mxCell id="4xFAI8DQ6K7P5_XGN9i8-21" value="Save file in the user selected format" style="rounded=0;whiteSpace=wrap;html=1;fontFamily=Times New Roman;fontSize=14;" vertex="1" parent="WIyWlLk6GJQsqaUBKTNV-1">
          <mxGeometry x="587.5" y="380" width="120" height="50" as="geometry" />
        </mxCell>
        <mxCell id="4xFAI8DQ6K7P5_XGN9i8-22" value="Set status to error message&lt;div style=&quot;font-size: 14px;&quot;&gt;Raise value error&lt;/div&gt;" style="rounded=0;whiteSpace=wrap;html=1;align=left;fontFamily=Times New Roman;fontSize=14;" vertex="1" parent="WIyWlLk6GJQsqaUBKTNV-1">
          <mxGeometry x="432.5" y="485" width="174.5" height="40" as="geometry" />
        </mxCell>
        <mxCell id="4xFAI8DQ6K7P5_XGN9i8-23" value="" style="edgeStyle=none;orthogonalLoop=1;jettySize=auto;html=1;rounded=0;exitX=0.25;exitY=1;exitDx=0;exitDy=0;" edge="1" parent="WIyWlLk6GJQsqaUBKTNV-1">
          <mxGeometry width="80" relative="1" as="geometry">
            <mxPoint x="492.5" y="320" as="sourcePoint" />
            <mxPoint x="492.5" y="365" as="targetPoint" />
            <Array as="points" />
          </mxGeometry>
        </mxCell>
        <mxCell id="4xFAI8DQ6K7P5_XGN9i8-25" value="" style="edgeStyle=none;orthogonalLoop=1;jettySize=auto;html=1;rounded=0;" edge="1" parent="WIyWlLk6GJQsqaUBKTNV-1">
          <mxGeometry width="80" relative="1" as="geometry">
            <mxPoint x="537.5" y="405.5" as="sourcePoint" />
            <mxPoint x="587.5" y="406" as="targetPoint" />
            <Array as="points" />
          </mxGeometry>
        </mxCell>
        <mxCell id="4xFAI8DQ6K7P5_XGN9i8-27" value="Yes" style="edgeLabel;html=1;align=center;verticalAlign=middle;resizable=0;points=[];fontSize=15;fontFamily=Times New Roman;" vertex="1" connectable="0" parent="4xFAI8DQ6K7P5_XGN9i8-25">
          <mxGeometry x="-0.3728" y="-1" relative="1" as="geometry">
            <mxPoint y="-11" as="offset" />
          </mxGeometry>
        </mxCell>
        <mxCell id="4xFAI8DQ6K7P5_XGN9i8-26" value="" style="edgeStyle=none;orthogonalLoop=1;jettySize=auto;html=1;rounded=0;" edge="1" parent="WIyWlLk6GJQsqaUBKTNV-1">
          <mxGeometry width="80" relative="1" as="geometry">
            <mxPoint x="491.5" y="445" as="sourcePoint" />
            <mxPoint x="491.5" y="484" as="targetPoint" />
            <Array as="points" />
          </mxGeometry>
        </mxCell>
        <mxCell id="4xFAI8DQ6K7P5_XGN9i8-30" value="No" style="edgeLabel;html=1;align=center;verticalAlign=middle;resizable=0;points=[];fontFamily=Times New Roman;fontSize=15;" vertex="1" connectable="0" parent="4xFAI8DQ6K7P5_XGN9i8-26">
          <mxGeometry x="-0.3629" relative="1" as="geometry">
            <mxPoint x="10" as="offset" />
          </mxGeometry>
        </mxCell>
        <mxCell id="4xFAI8DQ6K7P5_XGN9i8-31" value="Set the status label for transcription&lt;div style=&quot;font-size: 14px;&quot;&gt;Send the audio_url to get_transcription_result_url function&lt;/div&gt;&lt;div style=&quot;font-size: 14px;&quot;&gt;Returns transcription and error&lt;/div&gt;" style="rounded=0;whiteSpace=wrap;html=1;align=left;fontFamily=Times New Roman;fontSize=14;" vertex="1" parent="WIyWlLk6GJQsqaUBKTNV-1">
          <mxGeometry x="417.5" y="600" width="340" height="60" as="geometry" />
        </mxCell>
        <mxCell id="4xFAI8DQ6K7P5_XGN9i8-32" value="Transcription Available?" style="rhombus;whiteSpace=wrap;html=1;fontFamily=Times New Roman;fontSize=14;" vertex="1" parent="WIyWlLk6GJQsqaUBKTNV-1">
          <mxGeometry x="448.5" y="703" width="98" height="82" as="geometry" />
        </mxCell>
        <mxCell id="4xFAI8DQ6K7P5_XGN9i8-33" value="Save the file as .txt" style="rounded=0;whiteSpace=wrap;html=1;fontFamily=Times New Roman;fontSize=14;" vertex="1" parent="WIyWlLk6GJQsqaUBKTNV-1">
          <mxGeometry x="587.5" y="720" width="120" height="50" as="geometry" />
        </mxCell>
        <mxCell id="4xFAI8DQ6K7P5_XGN9i8-34" value="Set status to error message&lt;div style=&quot;font-size: 14px;&quot;&gt;Raise value error&lt;/div&gt;" style="rounded=0;whiteSpace=wrap;html=1;align=left;fontFamily=Times New Roman;fontSize=14;" vertex="1" parent="WIyWlLk6GJQsqaUBKTNV-1">
          <mxGeometry x="432.5" y="825" width="177.5" height="40" as="geometry" />
        </mxCell>
        <mxCell id="4xFAI8DQ6K7P5_XGN9i8-35" value="" style="edgeStyle=none;orthogonalLoop=1;jettySize=auto;html=1;rounded=0;exitX=0.25;exitY=1;exitDx=0;exitDy=0;" edge="1" parent="WIyWlLk6GJQsqaUBKTNV-1">
          <mxGeometry width="80" relative="1" as="geometry">
            <mxPoint x="497.5" y="660" as="sourcePoint" />
            <mxPoint x="497.5" y="705" as="targetPoint" />
            <Array as="points" />
          </mxGeometry>
        </mxCell>
        <mxCell id="4xFAI8DQ6K7P5_XGN9i8-36" value="" style="edgeStyle=none;orthogonalLoop=1;jettySize=auto;html=1;rounded=0;" edge="1" parent="WIyWlLk6GJQsqaUBKTNV-1">
          <mxGeometry width="80" relative="1" as="geometry">
            <mxPoint x="497.5" y="785" as="sourcePoint" />
            <mxPoint x="497.5" y="824" as="targetPoint" />
            <Array as="points" />
          </mxGeometry>
        </mxCell>
        <mxCell id="4xFAI8DQ6K7P5_XGN9i8-37" value="No" style="edgeLabel;html=1;align=center;verticalAlign=middle;resizable=0;points=[];fontFamily=Times New Roman;fontSize=15;" vertex="1" connectable="0" parent="4xFAI8DQ6K7P5_XGN9i8-36">
          <mxGeometry x="-0.3629" relative="1" as="geometry">
            <mxPoint x="12" as="offset" />
          </mxGeometry>
        </mxCell>
        <mxCell id="4xFAI8DQ6K7P5_XGN9i8-38" value="Set the status label of Summarization&lt;div style=&quot;font-size: 14px;&quot;&gt;Send the audio_url to get_summary function&lt;/div&gt;&lt;div style=&quot;font-size: 14px;&quot;&gt;Returns summary and error&lt;/div&gt;" style="rounded=0;whiteSpace=wrap;html=1;align=left;fontFamily=Times New Roman;fontSize=14;" vertex="1" parent="WIyWlLk6GJQsqaUBKTNV-1">
          <mxGeometry x="16.5" y="600" width="340" height="60" as="geometry" />
        </mxCell>
        <mxCell id="4xFAI8DQ6K7P5_XGN9i8-39" value="Summary Available?" style="rhombus;whiteSpace=wrap;html=1;fontFamily=Times New Roman;fontSize=14;" vertex="1" parent="WIyWlLk6GJQsqaUBKTNV-1">
          <mxGeometry x="56.5" y="705" width="80" height="80" as="geometry" />
        </mxCell>
        <mxCell id="4xFAI8DQ6K7P5_XGN9i8-40" value="Save the file as .txt" style="rounded=0;whiteSpace=wrap;html=1;fontFamily=Times New Roman;fontSize=14;" vertex="1" parent="WIyWlLk6GJQsqaUBKTNV-1">
          <mxGeometry x="193.5" y="720" width="120" height="50" as="geometry" />
        </mxCell>
        <mxCell id="4xFAI8DQ6K7P5_XGN9i8-41" value="Set status to error message&lt;div style=&quot;font-size: 14px;&quot;&gt;Raise value error&lt;/div&gt;" style="rounded=0;whiteSpace=wrap;html=1;align=left;fontFamily=Times New Roman;fontSize=14;" vertex="1" parent="WIyWlLk6GJQsqaUBKTNV-1">
          <mxGeometry x="31.5" y="825" width="168.5" height="40" as="geometry" />
        </mxCell>
        <mxCell id="4xFAI8DQ6K7P5_XGN9i8-42" value="" style="edgeStyle=none;orthogonalLoop=1;jettySize=auto;html=1;rounded=0;exitX=0.25;exitY=1;exitDx=0;exitDy=0;" edge="1" parent="WIyWlLk6GJQsqaUBKTNV-1">
          <mxGeometry width="80" relative="1" as="geometry">
            <mxPoint x="96.5" y="660" as="sourcePoint" />
            <mxPoint x="96.5" y="705" as="targetPoint" />
            <Array as="points" />
          </mxGeometry>
        </mxCell>
        <mxCell id="4xFAI8DQ6K7P5_XGN9i8-43" value="" style="edgeStyle=none;orthogonalLoop=1;jettySize=auto;html=1;rounded=0;" edge="1" parent="WIyWlLk6GJQsqaUBKTNV-1">
          <mxGeometry width="80" relative="1" as="geometry">
            <mxPoint x="96.5" y="785" as="sourcePoint" />
            <mxPoint x="96.5" y="824" as="targetPoint" />
            <Array as="points" />
          </mxGeometry>
        </mxCell>
        <mxCell id="4xFAI8DQ6K7P5_XGN9i8-44" value="No" style="edgeLabel;html=1;align=center;verticalAlign=middle;resizable=0;points=[];fontFamily=Times New Roman;fontSize=14;" vertex="1" connectable="0" parent="4xFAI8DQ6K7P5_XGN9i8-43">
          <mxGeometry x="-0.3629" relative="1" as="geometry">
            <mxPoint x="10" as="offset" />
          </mxGeometry>
        </mxCell>
        <mxCell id="4xFAI8DQ6K7P5_XGN9i8-45" value="&lt;font style=&quot;font-size: 14px;&quot;&gt;Subtitle format is non and is_summarization is false&lt;/font&gt;" style="rhombus;whiteSpace=wrap;html=1;fontFamily=Times New Roman;fontSize=14;" vertex="1" parent="WIyWlLk6GJQsqaUBKTNV-1">
          <mxGeometry x="217" y="400" width="181" height="110" as="geometry" />
        </mxCell>
        <mxCell id="4xFAI8DQ6K7P5_XGN9i8-46" value="&lt;font style=&quot;font-size: 14px;&quot;&gt;Subtitle format is non and is_summarization is true&lt;/font&gt;" style="rhombus;whiteSpace=wrap;html=1;fontFamily=Times New Roman;fontSize=14;" vertex="1" parent="WIyWlLk6GJQsqaUBKTNV-1">
          <mxGeometry x="21.5" y="420" width="181" height="110" as="geometry" />
        </mxCell>
        <mxCell id="4xFAI8DQ6K7P5_XGN9i8-47" value="" style="edgeStyle=none;orthogonalLoop=1;jettySize=auto;html=1;rounded=0;exitX=0.5;exitY=1;exitDx=0;exitDy=0;entryX=0.5;entryY=0;entryDx=0;entryDy=0;" edge="1" parent="WIyWlLk6GJQsqaUBKTNV-1" source="4xFAI8DQ6K7P5_XGN9i8-13" target="4xFAI8DQ6K7P5_XGN9i8-45">
          <mxGeometry width="80" relative="1" as="geometry">
            <mxPoint x="227" y="491" as="sourcePoint" />
            <mxPoint x="307" y="491" as="targetPoint" />
            <Array as="points" />
          </mxGeometry>
        </mxCell>
        <mxCell id="4xFAI8DQ6K7P5_XGN9i8-48" value="No" style="edgeLabel;html=1;align=center;verticalAlign=middle;resizable=0;points=[];fontFamily=Times New Roman;fontSize=15;" vertex="1" connectable="0" parent="4xFAI8DQ6K7P5_XGN9i8-47">
          <mxGeometry x="-0.0411" y="-3" relative="1" as="geometry">
            <mxPoint x="-12" y="5" as="offset" />
          </mxGeometry>
        </mxCell>
        <mxCell id="4xFAI8DQ6K7P5_XGN9i8-49" value="" style="edgeStyle=none;orthogonalLoop=1;jettySize=auto;html=1;rounded=0;entryX=0.125;entryY=-0.064;entryDx=0;entryDy=0;entryPerimeter=0;" edge="1" parent="WIyWlLk6GJQsqaUBKTNV-1" target="4xFAI8DQ6K7P5_XGN9i8-31">
          <mxGeometry width="80" relative="1" as="geometry">
            <mxPoint x="310" y="510" as="sourcePoint" />
            <mxPoint x="315" y="561" as="targetPoint" />
            <Array as="points">
              <mxPoint x="310" y="550" />
            </Array>
          </mxGeometry>
        </mxCell>
        <mxCell id="4xFAI8DQ6K7P5_XGN9i8-50" value="Yes" style="edgeLabel;html=1;align=center;verticalAlign=middle;resizable=0;points=[];fontFamily=Times New Roman;fontSize=15;" vertex="1" connectable="0" parent="4xFAI8DQ6K7P5_XGN9i8-49">
          <mxGeometry x="-0.0057" relative="1" as="geometry">
            <mxPoint x="8" y="-11" as="offset" />
          </mxGeometry>
        </mxCell>
        <mxCell id="4xFAI8DQ6K7P5_XGN9i8-51" value="" style="edgeStyle=none;orthogonalLoop=1;jettySize=auto;html=1;rounded=0;" edge="1" parent="WIyWlLk6GJQsqaUBKTNV-1">
          <mxGeometry width="80" relative="1" as="geometry">
            <mxPoint x="546.5" y="744.44" as="sourcePoint" />
            <mxPoint x="585.5" y="744" as="targetPoint" />
            <Array as="points" />
          </mxGeometry>
        </mxCell>
        <mxCell id="4xFAI8DQ6K7P5_XGN9i8-52" value="Yes" style="edgeLabel;html=1;align=center;verticalAlign=middle;resizable=0;points=[];fontFamily=Times New Roman;fontSize=15;" vertex="1" connectable="0" parent="4xFAI8DQ6K7P5_XGN9i8-51">
          <mxGeometry x="-0.3713" y="3" relative="1" as="geometry">
            <mxPoint y="-9" as="offset" />
          </mxGeometry>
        </mxCell>
        <mxCell id="4xFAI8DQ6K7P5_XGN9i8-53" value="" style="edgeStyle=none;orthogonalLoop=1;jettySize=auto;html=1;rounded=0;exitX=0;exitY=0.5;exitDx=0;exitDy=0;entryX=0.5;entryY=1;entryDx=0;entryDy=0;" edge="1" parent="WIyWlLk6GJQsqaUBKTNV-1" source="4xFAI8DQ6K7P5_XGN9i8-45" target="4xFAI8DQ6K7P5_XGN9i8-46">
          <mxGeometry width="80" relative="1" as="geometry">
            <mxPoint x="334" y="691.44" as="sourcePoint" />
            <mxPoint x="414" y="691.44" as="targetPoint" />
            <Array as="points">
              <mxPoint x="217" y="530" />
            </Array>
          </mxGeometry>
        </mxCell>
        <mxCell id="4xFAI8DQ6K7P5_XGN9i8-54" value="No" style="edgeLabel;html=1;align=center;verticalAlign=middle;resizable=0;points=[];fontFamily=Times New Roman;fontSize=15;" vertex="1" connectable="0" parent="4xFAI8DQ6K7P5_XGN9i8-53">
          <mxGeometry x="0.02" y="1" relative="1" as="geometry">
            <mxPoint x="16" y="9" as="offset" />
          </mxGeometry>
        </mxCell>
        <mxCell id="4xFAI8DQ6K7P5_XGN9i8-57" value="" style="edgeStyle=none;orthogonalLoop=1;jettySize=auto;html=1;rounded=0;" edge="1" parent="WIyWlLk6GJQsqaUBKTNV-1">
          <mxGeometry width="80" relative="1" as="geometry">
            <mxPoint x="136.5" y="744.44" as="sourcePoint" />
            <mxPoint x="193.5" y="744" as="targetPoint" />
            <Array as="points" />
          </mxGeometry>
        </mxCell>
        <mxCell id="4xFAI8DQ6K7P5_XGN9i8-58" value="Yes" style="edgeLabel;html=1;align=center;verticalAlign=middle;resizable=0;points=[];fontFamily=Times New Roman;fontSize=14;" vertex="1" connectable="0" parent="4xFAI8DQ6K7P5_XGN9i8-57">
          <mxGeometry x="-0.213" y="-2" relative="1" as="geometry">
            <mxPoint y="-11" as="offset" />
          </mxGeometry>
        </mxCell>
        <mxCell id="4xFAI8DQ6K7P5_XGN9i8-59" value="" style="edgeStyle=none;orthogonalLoop=1;jettySize=auto;html=1;rounded=0;exitX=1;exitY=0.5;exitDx=0;exitDy=0;entryX=1;entryY=0.5;entryDx=0;entryDy=0;" edge="1" parent="WIyWlLk6GJQsqaUBKTNV-1" source="WIyWlLk6GJQsqaUBKTNV-6" target="4xFAI8DQ6K7P5_XGN9i8-6">
          <mxGeometry width="80" relative="1" as="geometry">
            <mxPoint x="497" y="180" as="sourcePoint" />
            <mxPoint x="577" y="180" as="targetPoint" />
            <Array as="points">
              <mxPoint x="645" y="190" />
            </Array>
          </mxGeometry>
        </mxCell>
        <mxCell id="4xFAI8DQ6K7P5_XGN9i8-60" value="Yes" style="edgeLabel;html=1;align=center;verticalAlign=middle;resizable=0;points=[];fontSize=15;fontFamily=Times New Roman;" vertex="1" connectable="0" parent="4xFAI8DQ6K7P5_XGN9i8-59">
          <mxGeometry x="-0.0561" relative="1" as="geometry">
            <mxPoint y="11" as="offset" />
          </mxGeometry>
        </mxCell>
        <mxCell id="4xFAI8DQ6K7P5_XGN9i8-61" value="" style="edgeStyle=none;orthogonalLoop=1;jettySize=auto;html=1;rounded=0;exitX=0;exitY=0.25;exitDx=0;exitDy=0;entryX=1.002;entryY=0.35;entryDx=0;entryDy=0;entryPerimeter=0;" edge="1" parent="WIyWlLk6GJQsqaUBKTNV-1" source="4xFAI8DQ6K7P5_XGN9i8-6" target="4xFAI8DQ6K7P5_XGN9i8-11">
          <mxGeometry width="80" relative="1" as="geometry">
            <mxPoint x="317" y="240" as="sourcePoint" />
            <mxPoint x="397" y="240" as="targetPoint" />
            <Array as="points" />
          </mxGeometry>
        </mxCell>
        <mxCell id="4xFAI8DQ6K7P5_XGN9i8-62" value="" style="edgeStyle=none;orthogonalLoop=1;jettySize=auto;html=1;rounded=0;exitX=0.808;exitY=1.021;exitDx=0;exitDy=0;exitPerimeter=0;entryX=0.5;entryY=0;entryDx=0;entryDy=0;" edge="1" parent="WIyWlLk6GJQsqaUBKTNV-1" source="4xFAI8DQ6K7P5_XGN9i8-11" target="4xFAI8DQ6K7P5_XGN9i8-13">
          <mxGeometry width="80" relative="1" as="geometry">
            <mxPoint x="247.5" y="230" as="sourcePoint" />
            <mxPoint x="327.5" y="230" as="targetPoint" />
            <Array as="points">
              <mxPoint x="297" y="240" />
            </Array>
          </mxGeometry>
        </mxCell>
        <mxCell id="4xFAI8DQ6K7P5_XGN9i8-64" value="" style="edgeStyle=none;orthogonalLoop=1;jettySize=auto;html=1;rounded=0;exitX=0;exitY=0.5;exitDx=0;exitDy=0;entryX=0.366;entryY=-0.04;entryDx=0;entryDy=0;entryPerimeter=0;fontFamily=Times New Roman;" edge="1" parent="WIyWlLk6GJQsqaUBKTNV-1" source="4xFAI8DQ6K7P5_XGN9i8-46" target="4xFAI8DQ6K7P5_XGN9i8-38">
          <mxGeometry width="80" relative="1" as="geometry">
            <mxPoint x="60" y="570" as="sourcePoint" />
            <mxPoint x="140" y="570" as="targetPoint" />
            <Array as="points">
              <mxPoint x="22" y="560" />
            </Array>
          </mxGeometry>
        </mxCell>
        <mxCell id="4xFAI8DQ6K7P5_XGN9i8-65" value="Yes" style="edgeLabel;html=1;align=center;verticalAlign=middle;resizable=0;points=[];fontFamily=Times New Roman;fontSize=15;" vertex="1" connectable="0" parent="4xFAI8DQ6K7P5_XGN9i8-64">
          <mxGeometry x="0.0035" y="1" relative="1" as="geometry">
            <mxPoint y="-15" as="offset" />
          </mxGeometry>
        </mxCell>
      </root>
    </mxGraphModel>
  </diagram>
</mxfile>
